# Blender v2.81 (sub 16) OBJ File: ''
# www.blender.org
mtllib cube.mtl
o Cube
v 1.000000 1.000000 -1.000000
v 1.000000 -1.000000 -1.000000
v 1.000000 1.000000 1.000000
v 1.000000 -1.000000 1.000000
v -1.000000 1.000000 -1.000000
v -1.000000 -1.000000 -1.000000
v -1.000000 1.000000 1.000000
v -1.000000 -1.000000 1.000000
v 1.000000 -1.000000 -1.000000
v -1.000000 -1.000000 -1.000000
v -1.000000 -1.000000 1.000000
v -1.000000 1.000000 1.000000
v -1.000000 1.000000 -1.000000
v 1.000000 -1.000000 1.000000
vt 0.500000 0.500000
vt 0.749957 0.250043
vt 0.749957 0.500000
vt 0.999913 0.000087
vt 0.999913 0.250043
vt 0.500000 0.250043
vt 0.250043 0.500000
vt 0.250043 0.250043
vt 0.000087 0.500000
vt 0.999913 0.500000
vt 0.749957 0.749957
vt 0.999913 0.749956
vt 0.749957 0.000087
vt 0.000087 0.250043
vn 0.0000 1.0000 0.0000
vn 0.0000 0.0000 1.0000
vn -1.0000 0.0000 0.0000
vn 0.0000 -1.0000 0.0000
vn 1.0000 0.0000 0.0000
vn 0.0000 0.0000 -1.0000
usemtl Material
s off
f 5/1/1 3/2/1 1/3/1
f 3/2/2 8/4/2 14/5/2
f 12/6/3 10/7/3 11/8/3
f 9/9/4 11/8/4 10/7/4
f 1/3/5 14/5/5 2/10/5
f 13/11/6 2/10/6 6/12/6
f 5/1/1 12/6/1 3/2/1
f 3/2/2 7/13/2 8/4/2
f 12/6/3 5/1/3 10/7/3
f 9/9/4 4/14/4 11/8/4
f 1/3/5 3/2/5 14/5/5
f 13/11/6 1/3/6 2/10/6
